<?xml version="1.0" standalone="no"?>
<!DOCTYPE svg PUBLIC "-//W3C//DTD SVG 20010904//EN"
 "http://www.w3.org/TR/2001/REC-SVG-20010904/DTD/svg10.dtd">
<svg version="1.0" xmlns="http://www.w3.org/2000/svg"
 width="700.000000pt" height="700.000000pt" viewBox="0 0 700.000000 700.000000"
 preserveAspectRatio="xMidYMid meet">
<metadata>
Created by potrace 1.14, written by Peter Selinger 2001-2017
</metadata>
<g transform="translate(0.000000,700.000000) scale(0.100000,-0.100000)"
fill="#000000" stroke="none">
<path d="M231 6978 c-65 -22 -171 -105 -171 -134 0 -8 -4 -14 -8 -14 -7 0 -18
-24 -41 -90 -3 -8 -7 -1460 -8 -3226 -3 -2904 -1 -3216 13 -3264 30 -101 91
-171 189 -217 l60 -28 3216 -3 c2911 -2 3220 -1 3269 14 101 30 171 91 217
189 l28 60 3 3205 c1 2207 -1 3221 -8 3256 -26 126 -114 221 -240 258 -48 14
-367 16 -3254 16 l-3201 -1 -64 -21z"/>
</g>
</svg>
